<svg width="15" height="20" viewBox="0 0 15 20" fill="none" xmlns="http://www.w3.org/2000/svg">
<path d="M12.5 6.66667V5C12.5 3.67392 11.9732 2.40215 11.0355 1.46447C10.0979 0.526784 8.82608 0 7.5 0C6.17392 0 4.90215 0.526784 3.96447 1.46447C3.02678 2.40215 2.5 3.67392 2.5 5V6.66667C1.83757 6.66864 1.20283 6.93267 0.734419 7.40108C0.266006 7.8695 0.00197841 8.50423 0 9.16667V15C0 16.3261 0.526784 17.5979 1.46447 18.5355C2.40215 19.4732 3.67392 20 5 20H10C11.3261 20 12.5979 19.4732 13.5355 18.5355C14.4732 17.5979 15 16.3261 15 15V9.16667C14.998 8.50423 14.734 7.8695 14.2656 7.40108C13.7972 6.93267 13.1624 6.66864 12.5 6.66667ZM4.16667 5C4.16667 4.11594 4.51786 3.2681 5.14298 2.64298C5.7681 2.01786 6.61594 1.66667 7.5 1.66667C8.38406 1.66667 9.2319 2.01786 9.85702 2.64298C10.4821 3.2681 10.8333 4.11594 10.8333 5V6.66667H4.16667V5ZM8.33333 15C8.33333 15.221 8.24554 15.433 8.08926 15.5893C7.93297 15.7455 7.72101 15.8333 7.5 15.8333C7.27899 15.8333 7.06702 15.7455 6.91074 15.5893C6.75446 15.433 6.66667 15.221 6.66667 15V11.6667C6.66667 11.4457 6.75446 11.2337 6.91074 11.0774C7.06702 10.9211 7.27899 10.8333 7.5 10.8333C7.72101 10.8333 7.93297 10.9211 8.08926 11.0774C8.24554 11.2337 8.33333 11.4457 8.33333 11.6667V15Z" fill="#10768D"/>
</svg>
