<svg width="15" height="12" viewBox="0 0 15 12" fill="none" xmlns="http://www.w3.org/2000/svg">
<path d="M13.5 0H1.5C0.675 0 0.00749999 0.666118 0.00749999 1.48026L0 10.3618C0 11.176 0.675 11.8421 1.5 11.8421H13.5C14.325 11.8421 15 11.176 15 10.3618V1.48026C15 0.666118 14.325 0 13.5 0ZM13.2 3.14556L7.8975 6.41694C7.6575 6.56497 7.3425 6.56497 7.1025 6.41694L1.8 3.14556C1.6125 3.02714 1.5 2.8273 1.5 2.61266C1.5 2.11678 2.0475 1.82072 2.475 2.07977L7.5 5.18092L12.525 2.07977C12.9525 1.82072 13.5 2.11678 13.5 2.61266C13.5 2.8273 13.3875 3.02714 13.2 3.14556Z" fill="#10768D"/>
</svg>
